{
  "accessors": [
    {
      "bufferView": 2,
      "componentType": 5126,
      "count": 1020,
      "max": [
        0.6000000238418579,
        0.4287097454071045,
        2.9060568809509277
      ],
      "min": [
        -0.6000000238418579,
        -0.8512277007102966,
        0.0
      ],
      "type": "VEC3"
    },
    {
      "bufferView": 2,
      "byteOffset": 12240,
      "componentType": 5126,
      "count": 1020,
      "max": [
        1.0,
        0.9998831748962402,
        0.9996182918548584
      ],
      "min": [
        -1.0,
        -0.9994215965270996,
        -1.0
      ],
      "type": "VEC3"
    },
    {
      "bufferView": 3,
      "componentType": 5126,
      "count": 1020,
      "max": [
        1.0,
        1.0,
        0.999979555606842,
        1.0
      ],
      "min": [
        -1.0,
        -0.9998466968536377,
        -0.9998658895492554,
        -1.0
      ],
      "type": "VEC4"
    },
    {
      "bufferView": 1,
      "componentType": 5126,
      "count": 1020,
      "max": [
        0.982994556427002,
        0.9912214875221252
      ],
      "min": [
        0.02340119332075119,
        0.005916533060371876
      ],
      "type": "VEC2"
    },
    {
      "bufferView": 0,
      "componentType": 5125,
      "count": 3810,
      "type": "SCALAR"
    }
  ],
  "asset": {
    "extras": {
      "author": "riikkakilpelainen (https://sketchfab.com/riikkakilpelainen)",
      "license": "CC-BY-4.0 (http://creativecommons.org/licenses/by/4.0/)",
      "source": "https://sketchfab.com/3d-models/retro-arcade-cabinet-23f351d1b3b64e60a6fc204efd97e161",
      "title": "Retro Arcade Cabinet"
    },
    "generator": "Sketchfab-12.68.0",
    "version": "2.0"
  },
  "bufferViews": [
    {
      "buffer": 0,
      "byteLength": 15240,
      "name": "floatBufferViews",
      "target": 34963
    },
    {
      "buffer": 0,
      "byteLength": 8160,
      "byteOffset": 15240,
      "byteStride": 8,
      "name": "floatBufferViews",
      "target": 34962
    },
    {
      "buffer": 0,
      "byteLength": 24480,
      "byteOffset": 23400,
      "byteStride": 12,
      "name": "floatBufferViews",
      "target": 34962
    },
    {
      "buffer": 0,
      "byteLength": 16320,
      "byteOffset": 47880,
      "byteStride": 16,
      "name": "floatBufferViews",
      "target": 34962
    }
  ],
  "buffers": [
    {
      "byteLength": 64200,
      "uri": "scene.bin"
    }
  ],
  "images": [
    {
      "uri": "textures/HiPo_baseColor.jpeg"
    },
    {
      "uri": "textures/HiPo_metallicRoughness.png"
    },
    {
      "uri": "textures/HiPo_normal.jpeg"
    }
  ],
  "materials": [
    {
      "doubleSided": true,
      "name": "HiPo",
      "normalTexture": {
        "index": 2
      },
      "occlusionTexture": {
        "index": 1
      },
      "pbrMetallicRoughness": {
        "baseColorTexture": {
          "index": 0
        },
        "metallicRoughnessTexture": {
          "index": 1
        }
      }
    }
  ],
  "meshes": [
    {
      "name": "ArcadeCabinet_LowPoly.003_HiPo_0",
      "primitives": [
        {
          "attributes": {
            "NORMAL": 1,
            "POSITION": 0,
            "TANGENT": 2,
            "TEXCOORD_0": 3
          },
          "indices": 4,
          "material": 0,
          "mode": 4
        }
      ]
    }
  ],
  "nodes": [
    {
      "children": [
        1
      ],
      "matrix": [
        0.6666666865348816,
        0.0,
        0.0,
        0.0,
        0.0,
        0.002894704005957908,
        -0.6666604081787781,
        0.0,
        0.0,
        0.6666604081787781,
        0.002894704005957908,
        0.0,
        0.0,
        0.0009309254819527283,
        -0.006307110656052828,
        1.0
      ],
      "name": "Sketchfab_model"
    },
    {
      "children": [
        2
      ],
      "matrix": [
        1.0,
        0.0,
        0.0,
        0.0,
        0.0,
        0.0,
        1.0,
        0.0,
        0.0,
        -1.0,
        0.0,
        0.0,
        0.0,
        0.0,
        0.0,
        1.0
      ],
      "name": "2d8386bdde464db88e9cbfdcf7dfea2e.fbx"
    },
    {
      "children": [
        3
      ],
      "name": "RootNode"
    },
    {
      "children": [
        4
      ],
      "matrix": [
        1.0,
        0.0,
        0.0,
        0.0,
        0.0,
        -1.6292067939183141e-07,
        -0.9999999999999868,
        0.0,
        0.0,
        0.9999999999999868,
        -1.6292067939183141e-07,
        0.0,
        0.0,
        0.0,
        0.0,
        1.0
      ],
      "name": "ArcadeCabinet_LowPoly.003"
    },
    {
      "mesh": 0,
      "name": "ArcadeCabinet_LowPoly.003_HiPo_0"
    }
  ],
  "samplers": [
    {
      "magFilter": 9729,
      "minFilter": 9987,
      "wrapS": 10497,
      "wrapT": 10497
    }
  ],
  "scene": 0,
  "scenes": [
    {
      "name": "Sketchfab_Scene",
      "nodes": [
        0
      ]
    }
  ],
  "textures": [
    {
      "sampler": 0,
      "source": 0
    },
    {
      "sampler": 0,
      "source": 1
    },
    {
      "sampler": 0,
      "source": 2
    }
  ]
}
